<svg width="635" height="322" viewBox="0 0 635 322" fill="none" xmlns="http://www.w3.org/2000/svg">
<path d="M5.81257 31.7568L3.5 32.5908V35.0492V158V161.5H7H157H160.5V158V96.5246V35.0492V32.5908L158.187 31.7568L83.1874 4.70758L82 4.27933L80.8126 4.70758L5.81257 31.7568Z" fill="black" stroke="white" stroke-width="7"/>
<path d="M162.813 31.7568L160.5 32.5908V35.0492V158V161.5H164H314H317.5V158V96.5246V35.0492V32.5908L315.187 31.7568L240.187 4.70758L239 4.27933L237.813 4.70758L162.813 31.7568Z" fill="black" stroke="white" stroke-width="7"/>
<path d="M319.813 31.7568L317.5 32.5908V35.0492V158V161.5H321H471H474.5V158V96.5246V35.0492V32.5908L472.187 31.7568L397.187 4.70758L396 4.27933L394.813 4.70758L319.813 31.7568Z" fill="black" stroke="white" stroke-width="7"/>
<path d="M476.813 31.7568L474.5 32.5908V35.0492V158V161.5H478H628H631.5V158V96.5246V35.0492V32.5908L629.187 31.7568L554.187 4.70758L553 4.27933L551.813 4.70758L476.813 31.7568Z" fill="black" stroke="white" stroke-width="7"/>
<path d="M158.187 290.243L160.5 289.409L160.5 286.951L160.5 164L160.5 160.5L157 160.5L7.00001 160.5L3.50001 160.5L3.50001 164L3.50001 225.475L3.5 286.951L3.5 289.409L5.81258 290.243L80.8126 317.292L82 317.721L83.1874 317.292L158.187 290.243Z" fill="black" stroke="white" stroke-width="7"/>
<path d="M315.187 290.243L317.5 289.409L317.5 286.951L317.5 164L317.5 160.5L314 160.5L164 160.5L160.5 160.5L160.5 164L160.5 225.475L160.5 286.951L160.5 289.409L162.813 290.243L237.813 317.292L239 317.721L240.187 317.292L315.187 290.243Z" fill="black" stroke="white" stroke-width="7"/>
<path d="M472.187 290.243L474.5 289.409L474.5 286.951L474.5 164L474.5 160.5L471 160.5L321 160.5L317.5 160.5L317.5 164L317.5 225.475L317.5 286.951L317.5 289.409L319.813 290.243L394.813 317.292L396 317.721L397.187 317.292L472.187 290.243Z" fill="black" stroke="white" stroke-width="7"/>
<path d="M629.187 290.243L631.5 289.409L631.5 286.951L631.5 164L631.5 160.5L628 160.5L478 160.5L474.5 160.5L474.5 164L474.5 225.475L474.5 286.951L474.5 289.409L476.813 290.243L551.813 317.292L553 317.721L554.187 317.292L629.187 290.243Z" fill="black" stroke="white" stroke-width="7"/>
<rect x="7" y="35" width="621" height="252" fill="black"/>
<path d="M133.794 132.25C135.664 130.04 136.599 127.405 136.599 124.345C136.599 121.285 135.664 118.565 133.794 116.185C132.094 113.635 129.544 112.36 126.144 112.36H104.724V135.565H126.144C129.544 135.565 132.094 134.46 133.794 132.25ZM104.724 178.15V203.14H128.439C132.349 203.14 135.239 201.865 137.109 199.315C139.149 196.595 140.169 193.62 140.169 190.39V190.135C140.169 186.905 139.064 184.1 136.854 181.72C134.814 179.34 132.009 178.15 128.439 178.15H104.724ZM135.069 247H47.8594C45.9894 247 44.3744 246.32 43.0144 244.96C41.6544 243.6 40.9744 241.985 40.9744 240.115V75.385C40.9744 73.515 41.6544 71.9 43.0144 70.54C44.3744 69.18 45.9894 68.5 47.8594 68.5H132.519C156.659 68.5 174.424 72.92 185.814 81.76C197.374 90.43 203.154 103.605 203.154 121.285V122.05C203.154 129.36 201.029 135.905 196.779 141.685C192.529 147.295 187.854 151.375 182.754 153.925C189.554 156.645 195.249 161.49 199.839 168.46C204.599 175.26 206.979 182.74 206.979 190.9C206.979 228.3 183.009 247 135.069 247ZM325.264 139.39H395.389C397.259 139.39 398.874 140.07 400.234 141.43C401.594 142.79 402.274 144.405 402.274 146.275V179.425C402.274 201.865 394.284 219.205 378.304 231.445C362.324 243.515 340.989 249.55 314.299 249.55C287.779 249.55 266.869 243.685 251.569 231.955C236.269 220.055 228.619 202.29 228.619 178.66V135.82C228.619 113.21 236.439 95.955 252.079 84.055C267.719 71.985 288.544 65.95 314.554 65.95C340.734 65.95 361.899 71.475 378.049 82.525C394.199 93.405 402.274 106.835 402.274 122.815C402.274 124.345 401.679 125.705 400.489 126.895C399.469 127.915 398.194 128.425 396.664 128.425H340.309C336.909 128.425 334.444 127.49 332.914 125.62C329.514 121.2 326.964 118.65 325.264 117.97C321.354 116.44 317.784 115.675 314.554 115.675C301.464 115.675 294.919 122.05 294.919 134.8V178.15C294.919 192.6 301.889 199.825 315.829 199.825C330.109 199.825 337.249 193.705 337.249 181.465H325.264C323.394 181.465 321.779 180.785 320.419 179.425C319.059 178.065 318.379 176.45 318.379 174.58V146.275C318.379 144.405 319.059 142.79 320.419 141.43C321.779 140.07 323.394 139.39 325.264 139.39ZM521.992 139.39H592.117C593.987 139.39 595.602 140.07 596.962 141.43C598.322 142.79 599.002 144.405 599.002 146.275V179.425C599.002 201.865 591.012 219.205 575.032 231.445C559.052 243.515 537.717 249.55 511.027 249.55C484.507 249.55 463.597 243.685 448.297 231.955C432.997 220.055 425.347 202.29 425.347 178.66V135.82C425.347 113.21 433.167 95.955 448.807 84.055C464.447 71.985 485.272 65.95 511.282 65.95C537.462 65.95 558.627 71.475 574.777 82.525C590.927 93.405 599.002 106.835 599.002 122.815C599.002 124.345 598.407 125.705 597.217 126.895C596.197 127.915 594.922 128.425 593.392 128.425H537.037C533.637 128.425 531.172 127.49 529.642 125.62C526.242 121.2 523.692 118.65 521.992 117.97C518.082 116.44 514.512 115.675 511.282 115.675C498.192 115.675 491.647 122.05 491.647 134.8V178.15C491.647 192.6 498.617 199.825 512.557 199.825C526.837 199.825 533.977 193.705 533.977 181.465H521.992C520.122 181.465 518.507 180.785 517.147 179.425C515.787 178.065 515.107 176.45 515.107 174.58V146.275C515.107 144.405 515.787 142.79 517.147 141.43C518.507 140.07 520.122 139.39 521.992 139.39Z" fill="white"/>
<line x1="629.316" y1="38.2431" x2="8.31606" y2="290.243" stroke="white" stroke-width="7"/>
</svg>
