<svg viewBox="0 0 559 185" fill="none" xmlns="http://www.w3.org/2000/svg">
<path d="M93.7944 67.25C95.6644 65.04 96.5994 62.405 96.5994 59.345C96.5994 56.285 95.6644 53.565 93.7944 51.185C92.0944 48.635 89.5444 47.36 86.1444 47.36H64.7244V70.565H86.1444C89.5444 70.565 92.0944 69.46 93.7944 67.25ZM64.7244 113.15V138.14H88.4394C92.3494 138.14 95.2394 136.865 97.1094 134.315C99.1494 131.595 100.169 128.62 100.169 125.39V125.135C100.169 121.905 99.0644 119.1 96.8544 116.72C94.8144 114.34 92.0094 113.15 88.4394 113.15H64.7244ZM95.0694 182H7.85942C5.98941 182 4.37441 181.32 3.01442 179.96C1.65442 178.6 0.974415 176.985 0.974415 175.115V10.385C0.974415 8.51499 1.65442 6.89999 3.01442 5.53999C4.37441 4.17999 5.98941 3.49999 7.85942 3.49999H92.5194C116.659 3.49999 134.424 7.91999 145.814 16.76C157.374 25.43 163.154 38.605 163.154 56.285V57.05C163.154 64.36 161.029 70.905 156.779 76.685C152.529 82.295 147.854 86.375 142.754 88.925C149.554 91.645 155.249 96.49 159.839 103.46C164.599 110.26 166.979 117.74 166.979 125.9C166.979 163.3 143.009 182 95.0694 182ZM285.264 74.39H355.389C357.259 74.39 358.874 75.07 360.234 76.43C361.594 77.79 362.274 79.405 362.274 81.275V114.425C362.274 136.865 354.284 154.205 338.304 166.445C322.324 178.515 300.989 184.55 274.299 184.55C247.779 184.55 226.869 178.685 211.569 166.955C196.269 155.055 188.619 137.29 188.619 113.66V70.82C188.619 48.21 196.439 30.955 212.079 19.055C227.719 6.98499 248.544 0.94999 274.554 0.94999C300.734 0.94999 321.899 6.47499 338.049 17.525C354.199 28.405 362.274 41.835 362.274 57.815C362.274 59.345 361.679 60.705 360.489 61.895C359.469 62.915 358.194 63.425 356.664 63.425H300.309C296.909 63.425 294.444 62.49 292.914 60.62C289.514 56.2 286.964 53.65 285.264 52.97C281.354 51.44 277.784 50.675 274.554 50.675C261.464 50.675 254.919 57.05 254.919 69.8V113.15C254.919 127.6 261.889 134.825 275.829 134.825C290.109 134.825 297.249 128.705 297.249 116.465H285.264C283.394 116.465 281.779 115.785 280.419 114.425C279.059 113.065 278.379 111.45 278.379 109.58V81.275C278.379 79.405 279.059 77.79 280.419 76.43C281.779 75.07 283.394 74.39 285.264 74.39ZM481.992 74.39H552.117C553.987 74.39 555.602 75.07 556.962 76.43C558.322 77.79 559.002 79.405 559.002 81.275V114.425C559.002 136.865 551.012 154.205 535.032 166.445C519.052 178.515 497.717 184.55 471.027 184.55C444.507 184.55 423.597 178.685 408.297 166.955C392.997 155.055 385.347 137.29 385.347 113.66V70.82C385.347 48.21 393.167 30.955 408.807 19.055C424.447 6.98499 445.272 0.94999 471.282 0.94999C497.462 0.94999 518.627 6.47499 534.777 17.525C550.927 28.405 559.002 41.835 559.002 57.815C559.002 59.345 558.407 60.705 557.217 61.895C556.197 62.915 554.922 63.425 553.392 63.425H497.037C493.637 63.425 491.172 62.49 489.642 60.62C486.242 56.2 483.692 53.65 481.992 52.97C478.082 51.44 474.512 50.675 471.282 50.675C458.192 50.675 451.647 57.05 451.647 69.8V113.15C451.647 127.6 458.617 134.825 472.557 134.825C486.837 134.825 493.977 128.705 493.977 116.465H481.992C480.122 116.465 478.507 115.785 477.147 114.425C475.787 113.065 475.107 111.45 475.107 109.58V81.275C475.107 79.405 475.787 77.79 477.147 76.43C478.507 75.07 480.122 74.39 481.992 74.39Z" fill="white"/>
</svg>
